<svg 
 xmlns="http://www.w3.org/2000/svg"
 xmlns:xlink="http://www.w3.org/1999/xlink"
 width="40px" height="40px">
<path fill-rule="evenodd"  fill="rgb(42, 172, 200)"
 d="M19.999,0.0 C31.45,0.0 39.999,8.954 39.999,19.999 C39.999,31.45 31.45,39.999 19.999,39.999 C8.954,39.999 0.0,31.45 0.0,19.999 C0.0,8.954 8.954,0.0 19.999,0.0 Z"/>
<path fill-rule="evenodd"  fill="rgb(255, 255, 255)"
 d="M25.624,27.990 L25.624,26.673 L28.506,26.673 L28.506,23.954 L29.992,23.954 L29.992,27.990 L25.624,27.990 ZM28.506,12.312 L25.624,12.312 L25.624,10.996 L29.992,10.996 L29.992,15.31 L28.506,15.31 L28.506,12.312 ZM10.492,15.31 L9.6,15.31 L9.6,10.996 L13.374,10.996 L13.374,12.312 L10.492,12.312 L10.492,15.31 ZM11.888,13.714 L27.110,13.714 L27.110,25.271 L11.888,25.271 L11.888,13.714 ZM13.374,23.954 L25.624,23.954 L25.624,15.31 L13.374,15.31 L13.374,23.954 ZM14.815,16.433 L24.228,16.433 L24.228,22.552 L14.815,22.552 L14.815,16.433 ZM10.492,26.673 L13.374,26.673 L13.374,27.990 L9.6,27.990 L9.6,23.954 L10.492,23.954 L10.492,26.673 Z"/>
</svg>